<svg width="18" height="18" viewBox="0 0 18 18" fill="none" xmlns="http://www.w3.org/2000/svg">
<path fill-rule="evenodd" clip-rule="evenodd" d="M6.21974 9.53024C6.07913 9.38959 6.00015 9.19886 6.00015 8.99999C6.00015 8.80111 6.07913 8.61038 6.21974 8.46974L10.4625 4.22699C10.5317 4.15535 10.6144 4.09822 10.7059 4.05891C10.7974 4.0196 10.8959 3.99891 10.9954 3.99805C11.095 3.99718 11.1938 4.01616 11.286 4.05387C11.3781 4.09158 11.4619 4.14727 11.5323 4.21769C11.6027 4.28811 11.6584 4.37185 11.6961 4.46402C11.7338 4.55619 11.7528 4.65495 11.7519 4.75454C11.7511 4.85412 11.7304 4.95254 11.6911 5.04404C11.6518 5.13554 11.5946 5.2183 11.523 5.28749L7.81049 8.99999L11.523 12.7125C11.6596 12.8539 11.7352 13.0434 11.7335 13.24C11.7318 13.4367 11.6529 13.6248 11.5139 13.7639C11.3748 13.9029 11.1867 13.9818 10.99 13.9835C10.7934 13.9852 10.6039 13.9096 10.4625 13.773L6.21974 9.53024Z" fill="white"/>
</svg>
