<svg width="28" height="28" viewBox="0 0 28 28" fill="none" xmlns="http://www.w3.org/2000/svg">
<path d="M13.75 0C6.16 0 0 6.16 0 13.75C0 21.34 6.16 27.5 13.75 27.5C21.34 27.5 27.5 21.34 27.5 13.75C27.5 6.16 21.34 0 13.75 0ZM20.13 9.35C19.9237 11.5225 19.03 16.8025 18.5763 19.2362C18.3838 20.2675 17.9988 20.6112 17.6413 20.6525C16.8438 20.7213 16.2388 20.13 15.4688 19.6213C14.2587 18.8238 13.5713 18.3288 12.4025 17.5588C11.0413 16.665 11.9212 16.17 12.705 15.3725C12.9113 15.1663 16.4312 11.9625 16.5 11.6737C16.5096 11.63 16.5083 11.5846 16.4963 11.5415C16.4843 11.4983 16.462 11.4588 16.4312 11.4263C16.3487 11.3575 16.2388 11.385 16.1425 11.3988C16.0187 11.4262 14.0938 12.705 10.34 15.235C9.79 15.6062 9.295 15.7987 8.855 15.785C8.36 15.7712 7.425 15.51 6.72375 15.2762C5.8575 15.0012 5.18375 14.85 5.23875 14.3687C5.26625 14.1213 5.61 13.8737 6.25625 13.6125C10.2713 11.8662 12.9388 10.7113 14.2725 10.1613C18.095 8.56625 18.8788 8.29125 19.4013 8.29125C19.5113 8.29125 19.7725 8.31875 19.9375 8.45625C20.075 8.56625 20.1162 8.7175 20.13 8.8275C20.1162 8.91 20.1437 9.1575 20.13 9.35Z" fill="white" fill-opacity="0.34"/>
</svg>
